<svg width="160" height="160" viewBox="0 0 160 160" fill="none" xmlns="http://www.w3.org/2000/svg">
  <defs>
    <linearGradient id="bg" x1="18" y1="16" x2="141" y2="146" gradientUnits="userSpaceOnUse">
      <stop stop-color="#182235" />
      <stop offset="1" stop-color="#0B0F19" />
    </linearGradient>
    <linearGradient id="body" x1="47" y1="38" x2="107" y2="107" gradientUnits="userSpaceOnUse">
      <stop stop-color="#19A0FF" />
      <stop offset="1" stop-color="#2563EB" />
    </linearGradient>
    <linearGradient id="accent" x1="62" y1="24" x2="105" y2="68" gradientUnits="userSpaceOnUse">
      <stop stop-color="#F59E0B" />
      <stop offset="1" stop-color="#F97316" />
    </linearGradient>
    <filter id="shadow" x="40" y="24" width="104" height="104" filterUnits="userSpaceOnUse" color-interpolation-filters="sRGB">
      <feFlood flood-opacity="0" result="BackgroundImageFix" />
      <feColorMatrix in="SourceAlpha" type="matrix" values="0 0 0 0 0 0 0 0 0 0 0 0 0 0 0 0 0 0 127 0" result="hardAlpha" />
      <feOffset dy="8" />
      <feGaussianBlur stdDeviation="6" />
      <feComposite in2="hardAlpha" operator="out" />
      <feColorMatrix type="matrix" values="0 0 0 0 0 0 0 0 0 0.0313726 0 0 0 0 0.0941176 0 0 0 0.45 0" />
      <feBlend mode="normal" in2="BackgroundImageFix" result="effect1_dropShadow_0_1" />
      <feBlend mode="normal" in="SourceGraphic" in2="effect1_dropShadow_0_1" result="shape" />
    </filter>
  </defs>
  <rect x="8" y="8" width="144" height="144" rx="28" fill="url(#bg)" />
  <rect x="8.5" y="8.5" width="143" height="143" rx="27.5" stroke="#FFFFFF" stroke-opacity="0.12" />
  <g filter="url(#shadow)">
    <path d="M57 40C57 35.5817 60.5817 32 65 32H86C90.4183 32 94 35.5817 94 40V48H101C105.418 48 109 51.5817 109 56V78.5C109 82.9183 105.418 86.5 101 86.5H95.5L84.5 104.5C82.5308 107.723 77.8608 107.723 75.8916 104.5L64.5 86.5H58C53.5817 86.5 50 82.9183 50 78.5V56C50 51.5817 53.5817 48 58 48H57V40Z" fill="url(#body)" />
    <path d="M74 32H91C95.9706 32 100 36.0294 100 41V51H70V36C70 33.7909 71.7909 32 74 32Z" fill="url(#accent)" />
    <rect x="99" y="58" width="23" height="12" rx="5" fill="#D7EAFE" />
    <rect x="116" y="61.5" width="18" height="5" rx="2.5" fill="#94A3B8" />
    <path d="M67 83H88L78.5 98L67 83Z" fill="#06101F" fill-opacity="0.38" />
    <path d="M69 84H84.5L77.5 95L69 84Z" fill="#BFE4FF" fill-opacity="0.22" />
    <rect x="61" y="54" width="28" height="8" rx="4" fill="#E0F2FE" fill-opacity="0.9" />
    <rect x="61" y="66" width="20" height="6" rx="3" fill="#D7EAFE" fill-opacity="0.5" />
    <rect x="53" y="87" width="19" height="28" rx="8" transform="rotate(-18 53 87)" fill="#111827" />
    <rect x="54.5" y="88.5" width="16" height="25" rx="7" transform="rotate(-18 54.5 88.5)" stroke="#FFFFFF" stroke-opacity="0.1" />
  </g>
  <circle cx="117" cy="43" r="12" fill="#38BDF8" fill-opacity="0.14" />
  <circle cx="45" cy="120" r="15" fill="#F97316" fill-opacity="0.1" />
</svg>